<svg xmlns="http://www.w3.org/2000/svg" xmlns:xlink="http://www.w3.org/1999/xlink" id="Layer_1" x="0px" y="0px" viewBox="0 0 141.7 141.7" style="enable-background:new 0 0 141.7 141.7;" xml:space="preserve"><style type="text/css">	.st0{fill:url(#SVGID_1_);}	.st1{fill:url(#SVGID_00000178183112633761265120000017169459554434003619_);}	.st2{clip-path:url(#SVGID_00000077283937741349547620000015124175104109849480_);}	.st3{fill:url(#SVGID_00000082352897935761918200000015935582719777891254_);}	.st4{fill:#3C3C3B;}</style><g>	<g>		<linearGradient id="SVGID_1_" gradientUnits="userSpaceOnUse" x1="8.291058e-04" y1="0.3839" x2="141.703" y2="141.32">			<stop offset="0" style="stop-color:#06876A"></stop>			<stop offset="1" style="stop-color:#0A6C54"></stop>		</linearGradient>		<path class="st0" d="M70.9,131.4c-33.4,0-60.5-27.1-60.5-60.5c0-33.4,27.1-60.5,60.5-60.5s60.5,27.1,60.5,60.5   C131.4,104.2,104.2,131.4,70.9,131.4z M70.9,11.9c-32.5,0-59,26.5-59,59c0,32.5,26.5,59,59,59s59-26.5,59-59   C129.9,38.3,103.4,11.9,70.9,11.9z"></path>	</g>	<g>					<linearGradient id="SVGID_00000174588160483993946450000003261490055328173209_" gradientUnits="userSpaceOnUse" x1="14.5108" y1="-14.3573" x2="155.9576" y2="127.3449">			<stop offset="0" style="stop-color:#06876A"></stop>			<stop offset="1" style="stop-color:#0A6C54"></stop>		</linearGradient>		<path style="fill:url(#SVGID_00000174588160483993946450000003261490055328173209_);" d="M64.7,51.1l-0.1-1.8   c-0.2-3.5,1-7.1,4.1-10.9c2.2-2.6,4-4.8,4-7.2c0-2.4-1.6-4-5-4.1c-2.3,0-5,0.8-6.8,2.1l-2.4-7.5c2.5-1.5,6.6-2.8,11.5-2.8   c9.1,0,13.3,5,13.3,10.8c0,5.3-3.3,8.7-5.9,11.6c-2.6,2.8-3.6,5.5-3.5,8.6v1.2H64.7z M62.9,60.6c0-3.7,2.6-6.3,6.2-6.3   c3.7,0,6.2,2.6,6.2,6.3c0,3.6-2.5,6.3-6.2,6.3C65.4,66.9,62.9,64.2,62.9,60.6z"></path>	</g>	<g>		<defs>			<circle id="SVGID_00000181785879920773404320000008936077899446751110_" cx="70.9" cy="70.9" r="60.5"></circle>		</defs>		<clipPath id="SVGID_00000062173181391791245110000009215780158856627853_">			<use xlink:href="#SVGID_00000181785879920773404320000008936077899446751110_" style="overflow:visible;"></use>		</clipPath>		<g style="clip-path:url(#SVGID_00000062173181391791245110000009215780158856627853_);">			<g>									<linearGradient id="SVGID_00000037694483912372447980000012910691618290089379_" gradientUnits="userSpaceOnUse" x1="-18.0729" y1="19.1224" x2="121.076" y2="159.0373">					<stop offset="0" style="stop-color:#06876A"></stop>					<stop offset="1" style="stop-color:#0A6C54"></stop>				</linearGradient>				<path style="fill:url(#SVGID_00000037694483912372447980000012910691618290089379_);" d="M66,157c-0.6,0-1.2,0-1.7-0.1l-0.6-0.1     v-54.5H50.3V90.7h-7l17.9-14.8h8.4l-4.4,3.7l6.3,5.5h0.6v-5.7h24.9v23.8H72.2v-0.9h-1.7v54.7l-0.8,0c-0.7,0-1.4,0-2,0.1     C67.1,157,66.6,157,66,157z M65.1,155.5c0.8,0.1,1.6,0,2.5,0c0.5,0,0.9-0.1,1.4-0.1v-54.6h4.7v0.9h21.9V80.9H73.7v5.7H71l-8.1-7     l2.6-2.2h-3.7L47.5,89.2h4.3v11.6h13.3V155.5z"></path>			</g>			<polygon class="st4" points="61.1,75.6 42.7,91 51.7,91 70.4,75.6    "></polygon>		</g>	</g></g></svg>